<svg xmlns="http://www.w3.org/2000/svg" width="512" height="512"><g fill="none" fill-rule="evenodd"><path fill="#FEFEFE" d="M287.748 10.603c-8.021 9.67-20.114 15.835-33.638 15.835-13.236 0-25.067-5.91-33.082-15.22-60.78 15.453-105.806 70.47-105.806 136.17 0 77.665 62.847 140.635 140.362 140.635 77.522 0 140.362-62.97 140.362-140.636 0-66.568-46.204-122.193-108.198-136.784Z"/><path fill="#2E2E30" d="M217.866 23.108c-54.508 16.534-92.062 66.808-92.062 124.278 0 71.7 58.219 130.033 129.786 130.033 71.553 0 129.772-58.333 129.772-130.033 0-58.587-38.45-109.137-94.229-124.957a54.07 54.07 0 0 1-37.025 14.611 54.112 54.112 0 0 1-36.242-13.932m37.724 275.518c-83.237 0-150.952-67.848-150.952-151.24 0-69.19 46.79-129.41 113.785-146.44 3.867-.99 7.994.304 10.618 3.351 6.315 7.33 15.451 11.537 25.067 11.537 9.877 0 19.169-4.376 25.504-12.01A10.572 10.572 0 0 1 290.167.282c68.512 16.124 116.36 76.613 116.36 147.104 0 83.392-67.708 151.24-150.937 151.24"/><path fill="#F8E6C4" d="M354.91 500.01H156.266l-36.743-279.074h272.13z"/><path fill="#010202" d="m342.265 220.939-36.743 279.074h49.386l36.743-279.074z" opacity=".15"/><path fill="#2E2E30" d="M165.545 489.408h180.082l33.956-257.867H131.596l33.95 257.867Zm189.367 21.207H156.268c-5.313 0-9.8-3.945-10.498-9.218L109.027 222.33a10.598 10.598 0 0 1 2.54-8.377 10.58 10.58 0 0 1 7.958-3.62h272.13c3.04 0 5.947 1.323 7.958 3.62a10.594 10.594 0 0 1 2.533 8.377l-36.743 279.067c-.699 5.273-5.179 9.218-10.491 9.218Z"/><path fill="#FEFEFE" d="M145.636 168.592s-.93-54.628 24.228-61.697c25.158-7.07 109.82 65.076 192.717 61.697"/><path fill="#2E2E30" d="M356.908 179.31c-50.543 0-100.45-25.01-137.278-43.46-18.195-9.118-40.92-20.457-46.903-18.746-11.746 3.301-16.798 32.573-16.509 51.313.085 5.86-4.578 10.681-10.413 10.773-5.686.078-10.653-4.566-10.752-10.42-.113-6.425-.141-63.068 31.953-72.088 13.969-3.917 33.102 5.669 62.092 20.196 36.249 18.167 85.96 42.986 133.052 41.12 5.708-.22 10.773 4.312 11.006 10.165.233 5.846-4.31 10.787-10.152 11.02a146.12 146.12 0 0 1-6.096.127"/><path fill="#FEFEFE" d="M223.85 126.108s73.472-17.446 94.637-26.282c21.166-8.836 52.914-5.613 44.095 68.766 0 0-83.018-8.68-138.732-42.484"/><path fill="#FEFEFE" d="M180.912 106.404s73.197-10.045 73.197-54.296c0 0 59.086-2.997 74.96 44.718l-105.22 29.28-42.937-19.702Z"/><path fill="#010202" d="M254.107 52.108s66.402 66.363 67.58 116.482h40.892s15.952-72.004-27.96-72.23c0 0-23.45-49.455-80.512-44.252" opacity=".15"/><path fill="#2E2E30" d="M253.879 129.628c37.505 16.386 79.899 24.112 99.216 27.003 2.01-29.018-3.753-40.554-7.662-44.965-2.85-3.21-6.364-4.708-11.07-4.708-3.576 0-7.661.919-11.81 2.65-13.277 5.55-45.195 14.075-68.674 20.02m108.712 49.567c-.374 0-.734-.014-1.108-.056-3.485-.36-86.03-9.324-143.113-43.962a10.595 10.595 0 0 1-4.966-10.717 10.582 10.582 0 0 1 8.007-8.673c.727-.17 72.872-17.347 93-25.752 18.069-7.536 35.925-4.765 46.847 7.55 12.106 13.657 15.973 37.295 11.824 72.258-.628 5.386-5.2 9.352-10.49 9.352"/><path fill="#2E2E30" d="m212.5 109.235 12.24 5.62 89.557-24.918C301.641 69.232 276.736 64.2 263.494 63.02c-5.666 24.897-30.31 38.794-50.995 46.216m11.352 27.477c-1.503 0-3.006-.325-4.403-.968l-42.944-19.701a10.594 10.594 0 0 1-6.06-11.176 10.599 10.599 0 0 1 9.016-8.964c.642-.092 64.06-9.882 64.06-43.799 0-5.627 4.438-10.278 10.054-10.589 0 0 .924-.05 2.596-.05 10.957 0 66.467 2.51 82.933 52.014.917 2.75.67 5.76-.691 8.327a10.61 10.61 0 0 1-6.512 5.238l-105.213 29.28c-.931.261-1.884.388-2.836.388"/><path fill="#F8E6C4" d="M99.583 221.53h312.005v-52.938H99.583z"/><path fill="#010202" d="M362.202 221.53h49.386V168.6h-49.386z" opacity=".15"/><path fill="#2E2E30" d="M110.165 210.92h290.848v-31.725H110.165v31.725Zm301.43 21.207H99.583c-5.842 0-10.583-4.743-10.583-10.603v-52.932c0-5.853 4.741-10.604 10.583-10.604h312.012c5.842 0 10.583 4.75 10.583 10.604v52.932c0 5.86-4.741 10.603-10.583 10.603Z"/><path fill="#FBAE3A" d="M311.807 341.628c0 29.604-23.952 53.603-53.499 53.603s-53.506-23.999-53.506-53.603c0-29.605 23.96-53.604 53.506-53.604 29.547 0 53.499 23.999 53.499 53.604"/><path fill="#010202" d="M279.3 292.317a53.547 53.547 0 0 1 4.283 21.037c0 29.605-23.952 53.604-53.499 53.604a53.29 53.29 0 0 1-20.996-4.291c8.163 19.143 27.127 32.566 49.216 32.566 29.547 0 53.5-23.999 53.5-53.603 0-22.14-13.391-41.134-32.503-49.313" opacity=".15"/><path fill="#2E2E30" d="M258.309 298.626c-23.663 0-42.924 19.291-42.924 43 0 23.717 19.26 43.008 42.924 43.008 23.663 0 42.916-19.291 42.916-43.008 0-23.709-19.253-43-42.916-43m0 107.214c-35.34 0-64.089-28.805-64.089-64.214 0-35.4 28.75-64.207 64.089-64.207s64.081 28.806 64.081 64.207c0 35.409-28.742 64.214-64.081 64.214"/></g></svg>