<svg xmlns="http://www.w3.org/2000/svg" xmlns:xlink="http://www.w3.org/1999/xlink" width="512" height="512"><defs><path id="a" d="M0 6.569v67.499h310.738V6.569H0z"/></defs><g fill="none" fill-rule="evenodd"><path fill="#FEFEFE" d="M301.885 497.367h-143.73c-30.208 0-54.7-24.545-54.7-54.826V157.823c0-.25.203-.454.454-.454h252.216c.25 0 .453.203.453.454v284.718c0 30.28-24.485 54.826-54.693 54.826"/><path fill="#2E2E30" d="M113.617 167.555v274.99c0 24.613 19.975 44.637 44.535 44.637H301.89c24.56 0 44.536-20.024 44.536-44.637v-274.99h-232.81ZM301.89 507.546H158.152c-35.76 0-64.85-29.16-64.85-65V157.82c0-5.62 4.998-10.63 10.604-10.63h252.216c5.614 0 10.618 5.01 10.618 10.63v284.724c0 35.84-29.09 65.001-64.85 65.001Z"/><path fill="#513A2B" d="M158.152 497.366h143.73c30.208 0 54.7-24.545 54.7-54.825V327.676l-.007-.305H103.46v115.17c0 30.28 24.485 54.825 54.693 54.825"/><path fill="#010202" d="M356.127 157.37h-47.4c.25 0 .454.204.454.455v284.718c0 30.274-24.493 54.825-54.693 54.825h47.4c30.2 0 54.693-24.551 54.693-54.825V157.825a.454.454 0 0 0-.454-.455" opacity=".15"/><path fill="#FEFEFE" d="M381.238 167.463h-24.662v40.72h18.229c14.294 0 25.88 11.614 25.88 25.944v152.49c0 14.329-11.586 25.943-25.88 25.943h-18.229v29.982c0 3.679-.372 7.263-1.063 10.738h25.725c31.758 0 57.51-25.807 57.51-57.65V225.113c0-31.842-25.752-57.65-57.51-57.65"/><path fill="#010202" d="M381.238 167.463h-24.662v40.72h18.229c14.294 0 25.88 11.614 25.88 25.944v152.49c0 14.329-11.586 25.943-25.88 25.943h-18.229v29.982c0 3.679-.372 7.263-1.063 10.738h25.725c31.758 0 57.51-25.807 57.51-57.65V225.113c0-31.842-25.752-57.65-57.51-57.65" opacity=".15"/><path fill="#2E2E30" d="M366.738 443.1h14.505c26.104 0 47.346-21.294 47.346-47.468V225.114c0-26.18-21.242-47.468-47.346-47.468h-14.505v20.357h8.065c19.874 0 36.038 16.203 36.038 36.125v152.49c0 19.916-16.164 36.125-36.038 36.125h-8.065V443.1Zm14.505 20.364h-25.725c-3.04 0-5.918-1.365-7.848-3.72a10.198 10.198 0 0 1-2.12-8.444c.583-2.92.874-5.865.874-8.757v-29.982c0-5.62 4.55-10.182 10.157-10.182h18.222c8.674 0 15.723-7.073 15.723-15.761v-152.49c0-8.688-7.049-15.761-15.723-15.761h-18.222c-5.607 0-10.157-4.562-10.157-10.182v-40.72c0-5.628 4.55-10.182 10.157-10.182h24.662c37.304 0 67.66 30.43 67.66 67.831v170.518c0 37.401-30.356 67.832-67.66 67.832Z"/><path fill="#FEFEFE" d="M356.579 157.37H108.236c-23.24 0-42.084-18.883-42.084-42.186v-4.948h290.427v47.135Z"/><g transform="translate(56 93.485)"><mask id="b" fill="#fff"><use xlink:href="#a"/></mask><path fill="#2E2E30" d="M20.738 26.933c2.498 15.164 15.669 26.771 31.494 26.771h238.192V26.933H20.738ZM300.58 74.068H52.231c-28.805 0-52.234-23.493-52.234-52.369v-4.948c0-5.62 4.55-10.182 10.164-10.182h290.42c5.607 0 10.157 4.562 10.157 10.182v47.135c0 5.62-4.55 10.182-10.157 10.182Z" mask="url(#b)"/></g><path fill="#010202" d="M309.177 157.372h47.401v-47.135h-47.401z" opacity=".15"/><path fill="#FBAE3A" d="M356.579 107.741H103.456c0-26.031 21.052-47.135 47.02-47.135h159.082c25.969 0 47.02 21.104 47.02 47.135Z"/><path fill="#2E2E30" d="M115.038 97.561h229.965c-4.422-15.442-18.635-26.771-35.442-26.771H150.473c-16.8 0-31.02 11.329-35.435 26.771m241.673 20.364a.399.399 0 0 1-.129 0H103.46c-5.607 0-10.157-4.562-10.157-10.182 0-31.604 25.65-57.317 57.171-57.317h159.088c30.912 0 56.176 24.722 57.151 55.478.109.597.156 1.215.156 1.84 0 5.62-4.537 10.18-10.157 10.18"/><path fill="#010202" d="M309.558 60.607h-47.4c25.968 0 47.02 21.103 47.02 47.135h47.4c0-26.032-21.051-47.135-47.02-47.135" opacity=".15"/><path fill="#FBAE3A" d="M251.741 35.025c0 12.116-9.798 21.931-21.878 21.931-12.087 0-21.885-9.815-21.885-21.931 0-12.117 9.798-21.932 21.885-21.932 12.08 0 21.878 9.815 21.878 21.932"/><path fill="#2E2E30" d="M229.862 23.272c-6.467 0-11.721 5.267-11.721 11.75 0 6.49 5.254 11.756 11.721 11.756 6.467 0 11.722-5.267 11.722-11.756 0-6.483-5.255-11.75-11.722-11.75m0 43.87c-17.666 0-32.035-14.404-32.035-32.12 0-17.71 14.369-32.114 32.035-32.114 17.667 0 32.036 14.404 32.036 32.114 0 17.716-14.37 32.12-32.036 32.12"/><path fill="#FEFEFE" d="M229.862 161.266V437.3"/><path fill="#2E2E30" d="M229.862 447.482c-5.607 0-10.157-4.562-10.157-10.182V161.264c0-5.62 4.55-10.182 10.157-10.182s10.157 4.562 10.157 10.182V437.3c0 5.62-4.55 10.182-10.157 10.182"/><path fill="#FEFEFE" d="M150.858 442.54h162.393"/><path fill="#2E2E30" d="M313.248 452.725H150.863c-5.614 0-10.158-4.562-10.158-10.182s4.544-10.182 10.158-10.182h162.385c5.607 0 10.158 4.562 10.158 10.182s-4.55 10.182-10.158 10.182"/><path fill="#2E2E30" d="M113.618 337.55v104.995c0 24.613 19.976 44.637 44.536 44.637H301.89c24.56 0 44.536-20.024 44.536-44.637V337.55h-232.81ZM301.89 507.546H158.154c-35.76 0-64.85-29.16-64.85-65V327.368c0-5.62 4.55-10.182 10.157-10.182h253.123c5.607 0 10.157 4.561 10.157 10.182v115.176c0 35.84-29.09 65.001-64.85 65.001Z"/></g></svg>