<svg xmlns="http://www.w3.org/2000/svg" width="512" height="512"><g fill="none" fill-rule="evenodd"><path fill="#F8E6C4" d="M359.253 41.846v419.882l-38.375 39.254H106.474V217.205l64.638-175.359z"/><path fill="#F8E6C4" d="M404.965 500.564V221.245l-45.71-179.4-45.288 177.67v281.471h90.998"/><path fill="#F8E6C4" d="m359.253 461.73-38.79 38.831h84.5z"/><path fill="#FEFEFE" d="M171.116 41.848h185.355V10.166H171.116z"/><path fill="#B4814A" d="M106.471 372.815h205.77V217.2H106.47z"/><path fill="#513A2B" d="M231.84 275.296c14.448 18.505 14.545 42.589.214 53.8-14.324 11.218-37.649 5.3-52.097-13.211-14.449-18.506-14.546-42.59-.222-53.8 14.324-11.212 37.65-5.295 52.105 13.21"/><path fill="#513A2B" d="M184 259.373s2.351 31.33 21.895 36.215c15.838 3.965 20.74 35.398 20.74 35.398"/><path fill="#2E2E30" d="M359.253 472.111c-5.724 0-10.37-4.65-10.37-10.38V41.847c0-5.737 4.646-10.38 10.37-10.38 5.724 0 10.37 4.643 10.37 10.38V461.73c0 5.73-4.646 10.381-10.37 10.381"/><path fill="#010202" d="M356.472 41.846V10.164H315.65v31.682l-44.943 175.36v283.776h134.261V221.24z" opacity=".15"/><path fill="#2E2E30" d="M231.704 310.385c-4.175-10.54-11.337-21.876-23.297-24.866-6.886-1.723-10.709-11.031-12.589-18.65.367-.021.72-.084 1.106-.084 9.312 0 19.571 5.71 26.747 14.907 7.141 9.15 9.824 20.118 8.033 28.693m-43.58-.893c-6.43-8.242-9.264-17.993-8.462-26.111 4.266 9.606 11.476 19.218 23.72 22.277 4.002 1.01 8.433 9.53 11.115 18.713-9.222-.152-19.287-5.806-26.373-14.879m8.8-63.468c-5.69 0-11.026 1.246-15.907 3.419-.726.221-1.403.526-2.046.879-1.97 1.03-3.865 2.207-5.62 3.584-18.811 14.72-19.51 45.385-1.563 68.375 11.179 14.319 27.28 22.872 43.076 22.872 8.842 0 16.992-2.72 23.58-7.875 18.804-14.72 19.51-45.392 1.563-68.375-11.186-14.318-27.293-22.88-43.083-22.88"/><path fill="#2E2E30" d="m394.595 478.14-24.97-21.212V124.536l24.97 98.008V478.14Zm-48.648 12.041 13.958-14.277 16.813 14.277h-30.77Zm-21.61-269.367 24.548-96.3v332.92l-24.548 24.574V220.814ZM306.5 206.82H121.353L178.338 52.23h167.568L306.5 206.82ZM116.839 490.603h186.758V383.197H116.84v107.406Zm0-128.168h185.03V227.582H116.84v134.853ZM181.76 31.468H348.61v-10.92H181.76v10.92Zm233.25 187.207-45.385-178.12V10.167c0-5.737-4.708-10.38-10.515-10.38H171.252c-5.8 0-10.508 4.643-10.508 10.38v29.82L96.742 213.61c-.034.09-.02.18-.048.27-.36 1.051-.594 2.152-.594 3.321v283.783c0 5.73 4.645 10.381 10.37 10.381h298.495c5.724 0 10.37-4.65 10.37-10.38V221.241c0-.864-.111-1.73-.325-2.567Z"/></g></svg>